<!--?xml version="1.0" standalone="no"?-->
              <svg id="sw-js-blob-svg" viewBox="0 0 100 100" xmlns="http://www.w3.org/2000/svg" version="1.1">
                    <defs> 
                        <linearGradient id="sw-gradient" x1="0" x2="1" y1="1" y2="0">
                            <stop id="stop1" stop-color="rgba(220, 38, 38, 1)" offset="0%"></stop>
                            <stop id="stop2" stop-color="rgba(215.227, 115.512, 115.512, 1)" offset="100%"></stop>
                        </linearGradient>
                    </defs>
                <path fill="url(#sw-gradient)" d="M25.1,-30.7C32.4,-23.7,38.2,-15.7,39.3,-7.2C40.5,1.3,36.9,10.3,31.8,17.6C26.7,25,20,30.6,11.6,35C3.3,39.4,-6.7,42.5,-16,40.5C-25.3,38.6,-34,31.6,-38.4,22.8C-42.8,13.9,-42.9,3.2,-39.8,-5.8C-36.7,-14.7,-30.5,-21.8,-23.4,-28.8C-16.2,-35.8,-8.1,-42.7,0.4,-43.2C8.9,-43.6,17.7,-37.7,25.1,-30.7Z" width="100%" height="100%" transform="translate(50 50)" stroke-width="0" style="transition: 0.3s;" stroke="url(#sw-gradient)"></path>
              </svg>